# xmcd
#
# Track frame offsets: 
#        150
#        27818
#        60929
#        89665
#        120374
#        141462
#        181219
#        208425
#        242766
#        260570
#
# Disc length: 3888 seconds
#
# Revision: 0
# Processed by: cddbd v1.5.2PL0 Copyright (c) Steve Scherf et al.
# Submitted via: ExactAudioCopyFreeDBPlugin 1.0
#
DISCID=8f0f2e0a
DTITLE=Damon Fowler - Damon Fowler Live 2015
DYEAR=2015
DGENRE=Blues
TTITLE0=Sounds of Home
TTITLE1=Don't Call Me
TTITLE2=Fruit Stand Lady
TTITLE3=Old Fools, Bar Stools, and Me
TTITLE4=Wrong Side of the Road
TTITLE5=Sugar Lee
TTITLE6=Grit My Teeth
TTITLE7=Cypress and Pine
TTITLE8=I Shall Not Be Moved
TTITLE9=Sugar Shack
EXTD=
EXTT0=
EXTT1=
EXTT2=
EXTT3=
EXTT4=
EXTT5=
EXTT6=
EXTT7=
EXTT8=
EXTT9=
PLAYORDER=
